HIERARCHY
ROOT Hips
{
  OFFSET 0.0 0.0 0.0
  CHANNELS 6 XPOSITION YPOSITION ZPOSITION ZROTATION XROTATION YROTATION 
  JOINT RightUpLeg
  {
    OFFSET -0.089458 -0.0866707 0.00101652
    CHANNELS 3 ZROTATION XROTATION YROTATION 
    JOINT RightLeg
    {
      OFFSET 0.0 -0.444227 0.013727
      CHANNELS 3 ZROTATION XROTATION YROTATION 
      JOINT RightFoot
      {
        OFFSET 0.00253549 -0.420924 -0.0146059
        CHANNELS 3 ZROTATION XROTATION YROTATION 
        End Site
        {
          OFFSET 0.0004 -0.0441509 0.084991
        }
      }
    }
  }
  JOINT Spine
  {
    OFFSET 0.0 0.118905 0.0
    CHANNELS 3 ZROTATION XROTATION YROTATION 
    JOINT Spine1
    {
      OFFSET 0.0 0.256574 0.00127663
      CHANNELS 3 ZROTATION XROTATION YROTATION 
      End Site
      {
        OFFSET -0.0029 0.2150836 0.02525291
      }
      JOINT RightArm
      {
        OFFSET -0.162727 -0.05365632 0.00102123
        CHANNELS 3 ZROTATION XROTATION YROTATION 
        JOINT RightForeArm
        {
          OFFSET -0.26364 0.00099144 -0.0142434
          CHANNELS 3 ZROTATION XROTATION YROTATION 
          End Site
          {
            OFFSET -0.220324 0.00085362 0.0102216
          }
        }
      }
      JOINT LeftArm
      {
        OFFSET 0.162727 -0.0536563199 0.00102123
        CHANNELS 3 ZROTATION XROTATION YROTATION 
        JOINT LeftForeArm
        {
          OFFSET 0.262597 0.00099144 -0.0142434
          CHANNELS 3 ZROTATION XROTATION YROTATION 
          End Site
          {
            OFFSET 0.220902 0.00085362 0.0102216
          }
        }
      }
    }
  }
  JOINT LeftUpLeg
  {
    OFFSET 0.089458 -0.0866707 0.00101652
    CHANNELS 3 ZROTATION XROTATION YROTATION 
    JOINT LeftLeg
    {
      OFFSET 0.0 -0.444227 0.013727
      CHANNELS 3 ZROTATION XROTATION YROTATION 
      JOINT LeftFoot
      {
        OFFSET -0.00253549 -0.420924 -0.0146059
        CHANNELS 3 ZROTATION XROTATION YROTATION 
        End Site
        {
          OFFSET -0.0004 -0.0441509 0.084991
        }
      }
    }
  }
}
MOTION
Frames: 18
Frame Time: 0.033333
1.709 0.985292241613 0.0970516 -6.60377010657 -0.0747049005623 -93.0449008365 -2.58510002891 4.25497989535 -7.53585016411 -2.25982998549 12.6230997089 -6.3580502092 9.58184613659 -38.92597208 17.7234802923 5.37010987642 -13.489000356 2.54717006745 -6.268820191 30.4363986964 4.35896995235 82.555813479 -22.8999901643 16.9918543341 8.97790031961 34.4776986849 1.75178002446 -91.1958251942 -24.1969355122 -23.7634404811 -18.3382997705 37.1301992339 6.08569001274 0.634226980418 4.66918988738 6.53908992268 1.93029000662 12.1300001782 14.7902999495 0.253366507592 -38.2166296139 17.8413847253 
1.70897 0.985292241613 0.0970483 -6.43241005181 -0.103283999535 -92.9467988294 -2.59631989528 4.0577701359 -7.51587015324 -2.2448300363 12.6713003539 -6.48819007233 9.58381152353 -38.9348854768 17.7244911603 5.15664981627 -13.3508999074 2.51203002484 -5.9643401762 30.222999681 4.22251002981 82.1311054862 -22.9367741481 15.4264091273 9.07171979805 35.1170009761 1.22777997088 -91.1663802487 -26.2270214128 -22.7387635489 -17.8108008458 36.1151989723 6.79613000483 0.624617010977 4.44998008861 6.47956012831 1.93494990318 12.1695999074 14.7462008331 0.263574892317 -38.2173160479 17.841461565 
1.70863 0.985292241613 0.0970032 -6.16497015288 -0.123813000199 -92.7247015682 -2.57876993765 3.80677007541 -7.4833097877 -2.21174993604 12.6993997521 -6.76235984203 9.61764145049 -38.9510149685 17.7263182359 4.89576006875 -13.1573997945 2.34678000117 -5.63925988397 29.9339016791 3.94872018939 81.3740199979 -22.8833245027 12.5415976228 9.28797041737 35.5168983067 0.406950007867 -90.2724450901 -28.8164656554 -20.5941609892 -16.7768007055 34.6334987149 7.76096039255 0.640595011241 4.10281992923 6.40276020062 1.96007005829 12.2681996645 14.6004002 0.269953968837 -38.2383018041 17.8438521312 
1.70765 0.985292241613 0.0968316 -6.08653994441 -0.0501613995174 -92.423497056 -2.4414500516 3.92609006512 -7.47274006996 -2.17821989708 12.5173999702 -7.08678998562 9.65078067457 -38.9340419485 17.7243955377 4.84426983392 -13.0723997978 2.14415005972 -5.61781010177 30.1335002972 3.74708019848 80.827160902 -23.1159573308 9.69074838027 9.27163004355 33.8876010764 0.0374414995395 -88.8536440448 -30.7858448347 -18.5969334211 -16.4730007214 35.219501625 9.14013011901 0.770394005237 3.98739997754 6.42924980866 2.01076009377 12.3911003809 14.2210002671 0.230946091476 -38.3273367351 17.85401033 
1.70647 0.985292241613 0.0965794 -6.19899004447 0.091573199976 -92.2396010428 -2.22446006431 4.3071501609 -7.443179865 -2.17569998416 12.2183999015 -7.30278020397 9.64593465535 -38.8808552654 17.7183713108 4.84889984841 -12.9214995747 1.98795003671 -5.53946014803 30.4320990923 3.55988008126 80.3431190559 -23.6671057855 7.30695601087 8.98796033449 30.9937011515 0.167999001384 -87.0240959133 -31.6979346361 -16.5550142178 -17.1133002202 37.0907992877 10.2107998374 0.979854989627 4.12366011705 6.57126011367 2.03972009585 12.4909995815 13.8159999314 0.17294444521 -38.4465235361 17.8675887461 
1.70582 0.985292241613 0.0964189 -6.2198298054 0.188035001129 -92.3672026368 -2.0995000459 4.40426008297 -7.34870981104 -2.21480004239 12.1168998753 -7.26986979123 9.62389192735 -38.8533739993 17.7152618672 4.87291009777 -12.7527998786 1.98766999895 -5.49896011445 30.558099007 3.53985994303 79.8316471701 -24.1709124915 5.3461726247 8.67998966613 29.7623000064 0.424624002798 -84.9712757281 -32.0234580368 -14.1641730932 -17.683100214 38.305599658 10.1736999574 1.1069899964 4.196709844 6.70494996762 1.99637998425 12.5262997067 13.8017999681 0.160790910654 -38.5155152769 17.8753700391 
1.7056 0.985292241613 0.0964665 -6.02415982672 0.170684999956 -92.6922991508 -2.14472998547 4.0853299492 -7.25471018636 -2.25498994269 12.2547996871 -7.04469979863 9.61559239374 -38.8864457752 17.7190048109 4.91303020207 -12.6572002821 2.09309994521 -5.62724003169 30.4404011872 3.69565997309 79.3006955848 -24.3007014536 3.70456483222 8.5396096419 31.3560017058 0.499509022919 -83.0661310629 -32.4135301403 -11.7141833841 -17.6375992013 38.361600379 9.40541978901 1.07037996901 4.06494994538 6.72154007022 1.91651991837 12.4797997788 14.1803000236 0.188499494013 -38.51400239 17.8751907466 
1.70514 0.985292241613 0.0966829 -5.80640016249 0.107142002539 -92.915297997 -2.26087009523 3.79781014788 -7.27392009341 -2.24848995048 12.3437996134 -6.81288019 9.60729200635 -38.9302648538 17.7239669433 4.90225002913 -12.6646998298 2.15752997342 -5.72181979556 30.3060001398 3.80811989155 78.8476013258 -24.2447639119 2.55557141358 8.55682001106 33.6374010018 0.310641005516 -81.7839747821 -32.9591222361 -9.99028803387 -17.4298999788 38.1504006846 9.02326985118 0.956003969045 3.93444978978 6.63837013736 1.88989989641 12.3706004219 14.5313999215 0.188766965288 -38.489632275 17.8724894068 
1.70451 0.985292241613 0.0969603 -5.74359016977 0.0895321006622 -92.9809019639 -2.32762003989 3.80480981112 -7.37564978468 -2.21519000351 12.2560999844 -6.64907005558 9.58483092926 -38.9278742876 17.7236954433 4.79962985194 -12.6663996931 2.12685004433 -5.5514898187 30.3290008019 3.73051015956 78.549914361 -24.3434908812 2.1366494448 8.63619022431 34.3339983349 -0.139204004401 -81.3060322949 -33.4526921961 -9.29463155935 -17.3679006442 38.1973001785 9.28650961066 0.874954009507 3.96055007703 6.5478201851 1.93407008944 12.2665996927 14.6735002996 0.146403477353 -38.4772901232 17.8712446049 
1.70446 0.985291241613 0.0971902 -5.77594008011 0.13030099956 -93.0861005375 -2.31328005772 3.87324019576 -7.38907025262 -2.21689008028 12.1680998271 -6.52042002747 9.57364051808 -38.8847313977 17.7188101505 4.70858001521 -12.5048998702 2.08463990215 -5.28653013221 30.3852986361 3.5947601498 78.4575633732 -24.5635971423 2.43696944751 8.70800966343 33.7414008772 -0.690999993046 -81.3432295051 -33.7426815377 -9.22996418207 -17.332800302 38.29429911 9.60948961971 0.863825016667 4.01367016575 6.52874005165 1.97463010061 12.2660003436 14.8133996493 0.117853713509 -38.4827030481 17.8720881332 
1.70502 0.985288241613 0.0972939 -5.82093992768 0.218833004447 -93.265201758 -2.22337000881 3.86746996657 -7.27192994704 -2.2553799038 12.1545000667 -6.44921018273 9.5835434386 -38.8274636767 17.7123334236 4.74572984099 -12.1499998258 2.08637007444 -5.21547994314 30.295498724 3.55533992645 78.5774195328 -24.6620082154 3.20173377604 8.77146980478 33.4175986842 -1.02680997885 -81.5772386163 -33.7502152364 -9.48608432311 -17.2923006953 38.3477999818 9.69278975306 0.939523042743 3.99308013361 6.61376993041 1.96203992753 12.3985999286 14.9767999723 0.132171364155 -38.5207711074 17.8767087562 
1.7054 0.985285241613 0.097313 -5.89227015451 0.336222011629 -93.3211000261 -2.0896400275 3.95444986433 -7.17190011909 -2.26475006957 12.0777996037 -6.50003020525 9.57933091943 -38.7621670682 17.7049602344 4.84957006072 -11.8004998998 2.06772002947 -5.28200000924 30.1445003169 3.53910008448 78.844035967 -24.5848509835 4.22944608692 8.81680006276 33.722798857 -0.936401005962 -82.0486855935 -33.4662501216 -10.2106555497 -17.3828007018 38.4422000263 9.77538979201 1.08964996037 3.98796987145 6.75238008187 1.93179990531 12.558800308 14.9017993726 0.150249087299 -38.5938882825 17.885366021 
1.70536 0.985282241613 0.0974417 -5.92438015446 0.396544988398 -93.221802736 -2.03062996784 4.06196984847 -7.19290978098 -2.22492003487 11.9703001101 -6.58859001114 9.55636355457 -38.7141815742 17.6995507246 4.87119017076 -11.6886000568 1.98623992809 -5.279869844 30.1023990309 3.4496700698 79.1773218778 -24.4016106684 5.53494838119 8.82259035562 33.9566986852 -0.469054009823 -82.899433466 -32.9607307457 -11.5250315404 -17.5422992793 38.3339995846 9.87726035593 1.18349996122 3.99642009612 6.80482995828 1.92538998622 12.6009997781 14.6405992784 0.139331256695 -38.6395993235 17.8908609081 
1.70565 0.985278241613 0.0978231 -5.77747004249 0.310323988689 -93.2061001311 -2.16823010509 3.82007997967 -7.25904991781 -2.19217994997 12.090800015 -6.53046979706 9.56459649385 -38.733924236 17.7017756587 4.78629006561 -11.7602000761 1.93214995251 -5.24190978702 30.0661990283 3.40042995541 79.5334889222 -24.1115871759 7.14557870447 8.82579969076 33.7737998796 0.282188011579 -83.9943537711 -32.2460026755 -13.1771655081 -17.5557991482 37.6792986319 9.52772030252 1.06674001179 3.84823999585 6.67225001008 1.92620000397 12.5101002055 14.6639004687 0.126999603612 -38.5835815271 17.884592502 
1.70664 0.985272241613 0.0983459 -5.49577980762 0.111823003318 -93.3906996538 -2.44815004029 3.22317992971 -7.2795703674 -2.20106004966 12.4671997873 -6.30630981869 9.60794258187 -38.8129085435 17.7106890556 4.70627994901 -11.7554001607 1.99768006807 -5.32050007805 29.8317015586 3.52575005286 79.9109866475 -23.7721677553 8.92013655603 8.78900973057 33.4866006703 1.39207995793 -85.0532038472 -31.2514280946 -14.8228150651 -17.417199242 36.6595992001 8.33752995756 0.784196003281 3.53323999562 6.4341598609 1.90664004973 12.4016000892 15.1393994557 0.161513509984 -38.4491668193 17.8692655575 
1.70768 0.985265241613 0.0987868 -5.31686001411 -0.0398380988604 -93.575101101 -2.66438998743 2.7742499517 -7.2791101834 -2.21446002704 12.768900342 -6.11646983335 9.62009092708 -38.8653268303 17.7166142447 4.74605982451 -11.575900228 2.11889009918 -5.53737011014 29.4943994966 3.74542985402 80.3550787171 -23.5331743136 10.7046583729 8.59328980613 33.4012984377 2.91474993113 -85.956393912 -29.8940782612 -16.3594197981 -17.2240005112 35.6703009404 6.34645980507 0.562407007686 3.29791991503 6.27104982087 1.88072994056 12.3649996668 15.6133992162 0.237357397951 -38.3460207175 17.8574715284 
1.70823 0.985251241613 0.0991023 -5.35155993641 -0.0524412986531 -93.5464006461 -2.70660994801 2.77289992212 -7.31768026164 -2.20065002487 12.7803998192 -6.1109898872 9.58569836329 -38.8413494512 17.7139026596 4.93401980028 -11.3264002478 2.16425002579 -5.83779982276 29.293301652 3.90153980392 80.8693919616 -23.2591402939 12.4886414587 8.24287036586 33.3038009024 4.71605010773 -86.5808371267 -27.6701071957 -17.8295770358 -16.8260002656 34.1453006987 3.72431987373 0.525873980002 3.28194004714 6.24605986625 1.87950989802 12.3930000273 15.6599998894 0.297817138586 -38.3339654336 17.8559859622 
1.70866 0.985228241613 0.0994078 -5.45547998397 -0.0116640996413 -93.3752975772 -2.6714699054 2.93543003639 -7.36686018499 -2.17833003388 12.6766996184 -6.22990988396 9.56885084793 -38.7886033154 17.7079450271 5.16035988965 -11.057100403 2.12702997713 -6.13152015519 29.1926997957 3.96776019547 81.2563973102 -22.3187666791 14.2878669653 7.86713995207 32.494000014 6.63468994606 -86.6168527142 -23.8328488634 -19.2029983043 -16.1064996007 30.8355993477 0.567988979786 0.569988997913 3.3167400744 6.26081008665 1.89765002668 12.4590001452 15.4426000907 0.321600230802 -38.3658863227 17.8593771512 
